<svg xmlns="http://www.w3.org/2000/svg" xmlns:xlink="http://www.w3.org/1999/xlink" xmlns:lucid="lucid" width="762" height="138"><g transform="translate(-299 -138)" lucid:page-tab-id="0_0"><path d="M0 0h1360v1760H0z" fill="#fff"/><path d="M488 159h83.25v47H488z" stroke="#000" stroke-opacity="0" stroke-width="2" fill="#fff" fill-opacity="0"/><use xlink:href="#a" transform="matrix(1,0,0,1,493,164) translate(8.166666666666664 22.5)"/><path d="M319 180c0-6.63 5.37-12 12-12h96c6.63 0 12 5.37 12 12v40c0 6.63-5.37 12-12 12h-96c-6.63 0-12-5.37-12-12z" stroke="#000" fill="#c1e4f7"/><use xlink:href="#b" transform="matrix(1,0,0,1,324,173) translate(24.814814814814817 31.444444444444443)"/><path d="M618 179c0-6.63 5.37-12 12-12h96c6.63 0 12 5.37 12 12v40c0 6.63-5.37 12-12 12h-96c-6.63 0-12-5.37-12-12z" stroke="#000" fill="#f9d2de"/><use xlink:href="#c" transform="matrix(1,0,0,1,623,172) translate(31.203703703703706 31.444444444444443)"/><path d="M921 178c0-6.63 5.37-12 12-12h96c6.63 0 12 5.37 12 12v40c0 6.63-5.37 12-12 12h-96c-6.63 0-12-5.37-12-12z" stroke="#000" fill="#c7e8ac"/><use xlink:href="#d" transform="matrix(1,0,0,1,926,171) translate(19.228395061728392 31.444444444444443)"/><path d="M787.38 158h83.25v47h-83.25z" stroke="#000" stroke-opacity="0" stroke-width="2" fill="#fff" fill-opacity="0"/><use xlink:href="#e" transform="matrix(1,0,0,1,792.375,163) translate(-3.5277777777777786 22.5)"/><path d="M440 200h161.12" fill="none"/><path d="M440 200h4.88m4.88 0h9.77m4.88 0h9.78m4.88 0h9.76m4.9 0h9.75m4.88 0h9.77m4.88 0h9.76m4.9 0h9.75m4.9 0h9.76m4.88 0h9.76m4.9 0h9.75m4.88 0h4.9" stroke="#000" fill="none"/><path d="M440 200.5h-.5v-1h.5zM615.88 200l-14.26 4.64v-9.28z"/><path d="M617.5 200l-16.38 5.32v-10.64zm-15.38 3.95l12.14-3.95-12.14-3.95z"/><path d="M739 199h165.12" fill="none"/><path d="M739 199h5m5 0h10m5.02 0h10m5 0h10.02m5 0h10m5 0h10.02m5 0h10m5 0h10.02m5 0h10m5 0h10.02m5 0h10m5 0h5.02" stroke="#000" fill="none"/><path d="M739 199.5h-.5v-1h.5zM918.88 199l-14.26 4.64v-9.28z"/><path d="M920.5 199l-16.38 5.32v-10.64zm-15.38 3.95l12.14-3.95-12.14-3.95z"/><path d="M981 231v39H379v-21.12" fill="none"/><path d="M981 231v5.02m0 5v10.04m0 5.02v10.03m-1.13 3.9h-10.03m-5.02 0H954.8m-5.02 0h-10.04m-5 0H924.7m-5.02 0h-10.03m-5.02 0H894.6m-5.02 0h-10.03m-5 0H864.5m-5 0h-10.05m-5 0H834.4m-5 0h-10.04m-5.02 0H804.3m-5 0h-10.04m-5 0H774.2m-5 0h-10.03m-5.02 0h-10.03m-5.02 0h-10.03m-5.02 0h-10.03m-5 0h-10.05m-5 0h-10.04m-5.02 0H668.9m-5.02 0h-10.03m-5.02 0H638.8m-5 0h-10.05m-5 0h-10.04m-5.03 0h-10.03m-5.02 0H578.6m-5.03 0h-10.03m-5 0h-10.05m-5.02 0h-10.04m-5 0H518.4m-5.02 0h-10.03m-5.02 0H488.3m-5.02 0h-10.03m-5 0H458.2m-5 0h-10.04m-5.02 0H428.1m-5 0h-10.04m-5.02 0H398m-5 0h-10.04m-3.96-1.05v-10.03m0-5.02v-5.02" stroke="#000" fill="none"/><path d="M981.5 231h-1v-.5h1zM383.64 248.38h-9.28l4.64-14.26z"/><path d="M384.32 248.88h-10.64L379 232.5zm-9.27-1h7.9L379 235.74z"/><defs><path d="M66-151c12-25 30-51 66-40l-6 26C45-176 58-65 38 0H6l36-190h30" id="f"/><path d="M111-194c62-3 86 47 72 106H45c-7 38 6 69 45 68 27-1 43-14 53-32l24 11C152-15 129 4 87 4 38 3 12-23 12-71c0-70 32-119 99-123zm44 81c14-66-71-72-95-28-4 8-8 17-11 28h106" id="g"/><path d="M67-158c22-48 132-52 116 29L158 0h-32l25-140c3-38-53-32-70-12C52-117 51-52 38 0H6l36-190h30" id="h"/><path d="M133-28C103 26-5 8 13-77c13-62 24-115 90-117 29-1 46 15 56 35l19-102h32L160 0h-30zM45-64c-2 27 10 43 35 43 54-1 69-50 69-103 0-29-15-46-42-46-53-1-58 58-62 106" id="i"/><g id="a"><use transform="matrix(0.05555555555555555,0,0,0.05555555555555555,0,0)" xlink:href="#f"/><use transform="matrix(0.05555555555555555,0,0,0.05555555555555555,6.611111111111111,0)" xlink:href="#g"/><use transform="matrix(0.05555555555555555,0,0,0.05555555555555555,17.72222222222222,0)" xlink:href="#h"/><use transform="matrix(0.05555555555555555,0,0,0.05555555555555555,28.833333333333332,0)" xlink:href="#i"/><use transform="matrix(0.05555555555555555,0,0,0.05555555555555555,39.94444444444444,0)" xlink:href="#g"/><use transform="matrix(0.05555555555555555,0,0,0.05555555555555555,51.05555555555556,0)" xlink:href="#f"/></g><path d="M240 0l2-218c-23 76-54 145-80 218h-23L58-218 59 0H30v-248h44l77 211c21-75 51-140 76-211h43V0h-30" id="j"/><path d="M100-194c62-1 85 37 85 99 1 63-27 99-86 99S16-35 15-95c0-66 28-99 85-99zM99-20c44 1 53-31 53-75 0-43-8-75-51-75s-53 32-53 75 10 74 51 75" id="k"/><path d="M85-194c31 0 48 13 60 33l-1-100h32l1 261h-30c-2-10 0-23-3-31C134-8 116 4 85 4 32 4 16-35 15-94c0-66 23-100 70-100zm9 24c-40 0-46 34-46 75 0 40 6 74 45 74 42 0 51-32 51-76 0-42-9-74-50-73" id="l"/><path d="M100-194c63 0 86 42 84 106H49c0 40 14 67 53 68 26 1 43-12 49-29l28 8c-11 28-37 45-77 45C44 4 14-33 15-96c1-61 26-98 85-98zm52 81c6-60-76-77-97-28-3 7-6 17-6 28h103" id="m"/><path d="M24 0v-261h32V0H24" id="n"/><g id="b"><use transform="matrix(0.06172839506172839,0,0,0.06172839506172839,0,0)" xlink:href="#j"/><use transform="matrix(0.06172839506172839,0,0,0.06172839506172839,18.456790123456788,0)" xlink:href="#k"/><use transform="matrix(0.06172839506172839,0,0,0.06172839506172839,30.80246913580247,0)" xlink:href="#l"/><use transform="matrix(0.06172839506172839,0,0,0.06172839506172839,43.148148148148145,0)" xlink:href="#m"/><use transform="matrix(0.06172839506172839,0,0,0.06172839506172839,55.49382716049382,0)" xlink:href="#n"/></g><path d="M137 0h-34L2-248h35l83 218 83-218h36" id="o"/><path d="M24-231v-30h32v30H24zM24 0v-190h32V0H24" id="p"/><path d="M206 0h-36l-40-164L89 0H53L-1-190h32L70-26l43-164h34l41 164 42-164h31" id="q"/><g id="c"><use transform="matrix(0.06172839506172839,0,0,0.06172839506172839,0,0)" xlink:href="#o"/><use transform="matrix(0.06172839506172839,0,0,0.06172839506172839,14.382716049382715,0)" xlink:href="#p"/><use transform="matrix(0.06172839506172839,0,0,0.06172839506172839,19.25925925925926,0)" xlink:href="#m"/><use transform="matrix(0.06172839506172839,0,0,0.06172839506172839,31.604938271604937,0)" xlink:href="#q"/></g><path d="M232-93c-1 65-40 97-104 97C67 4 28-28 28-90v-158h33c8 89-33 224 67 224 102 0 64-133 71-224h33v155" id="r"/><path d="M115-194c55 1 70 41 70 98S169 2 115 4C84 4 66-9 55-30l1 105H24l-1-265h31l2 30c10-21 28-34 59-34zm-8 174c40 0 45-34 45-75s-6-73-45-74c-42 0-51 32-51 76 0 43 10 73 51 73" id="s"/><path d="M141-36C126-15 110 5 73 4 37 3 15-17 15-53c-1-64 63-63 125-63 3-35-9-54-41-54-24 1-41 7-42 31l-33-3c5-37 33-52 76-52 45 0 72 20 72 64v82c-1 20 7 32 28 27v20c-31 9-61-2-59-35zM48-53c0 20 12 33 32 33 41-3 63-29 60-74-43 2-92-5-92 41" id="t"/><path d="M59-47c-2 24 18 29 38 22v24C64 9 27 4 27-40v-127H5v-23h24l9-43h21v43h35v23H59v120" id="u"/><g id="d"><use transform="matrix(0.06172839506172839,0,0,0.06172839506172839,0,0)" xlink:href="#r"/><use transform="matrix(0.06172839506172839,0,0,0.06172839506172839,15.987654320987653,0)" xlink:href="#s"/><use transform="matrix(0.06172839506172839,0,0,0.06172839506172839,28.333333333333332,0)" xlink:href="#l"/><use transform="matrix(0.06172839506172839,0,0,0.06172839506172839,40.67901234567901,0)" xlink:href="#t"/><use transform="matrix(0.06172839506172839,0,0,0.06172839506172839,53.02469135802469,0)" xlink:href="#u"/><use transform="matrix(0.06172839506172839,0,0,0.06172839506172839,59.19753086419753,0)" xlink:href="#m"/></g><path d="M248-111c6-24 9-61-24-58-72 9-57 108-77 169h-31l26-142c3-37-50-30-64-10C52-115 50-51 37 0H6l36-190h30c-1 10-6 24-4 32 13-43 101-52 105 5 13-22 29-41 61-41 90 0 28 129 23 194h-31" id="v"/><path d="M55-144c13 50 104 24 104 88C159 21 15 23 1-39l26-10c6 40 102 42 102-4-13-50-104-23-104-87 0-71 143-71 148-8l-29 4c-5-35-85-37-89 0" id="w"/><path d="M165-48c-4 18 1 34 23 27l-3 20c-29 8-62 0-52-35h-2C116-14 99 4 63 4 30 4 8-16 8-49c0-68 71-67 138-67 10-26 0-56-31-54-26 1-42 9-47 31l-32-5c8-67 160-71 144 15-5 28-9 54-15 81zM42-50c3 52 80 24 89-6 7-12 7-24 11-38-47 1-103-4-100 44" id="x"/><path d="M103-194c29 0 47 14 56 36 2-11 5-23 8-32h30L160-5C157 61 82 97 21 62 9 55 4 45 1 30l28-7c7 42 83 31 92-3 4-16 9-38 13-55-13 20-29 36-62 36-40 0-60-25-60-64 0-71 23-131 91-131zm4 24c-53 0-58 54-61 104-2 27 10 44 36 44 49 0 65-50 67-102 1-29-15-46-42-46" id="y"/><g id="e"><use transform="matrix(0.05555555555555555,0,0,0.05555555555555555,0,0)" xlink:href="#v"/><use transform="matrix(0.05555555555555555,0,0,0.05555555555555555,16.61111111111111,0)" xlink:href="#g"/><use transform="matrix(0.05555555555555555,0,0,0.05555555555555555,27.72222222222222,0)" xlink:href="#w"/><use transform="matrix(0.05555555555555555,0,0,0.05555555555555555,37.72222222222222,0)" xlink:href="#w"/><use transform="matrix(0.05555555555555555,0,0,0.05555555555555555,47.72222222222222,0)" xlink:href="#x"/><use transform="matrix(0.05555555555555555,0,0,0.05555555555555555,58.83333333333333,0)" xlink:href="#y"/><use transform="matrix(0.05555555555555555,0,0,0.05555555555555555,69.94444444444444,0)" xlink:href="#g"/></g></defs></g></svg>